<?xml version="1.0" standalone="no"?>
<!DOCTYPE svg PUBLIC "-//W3C//DTD SVG 20010904//EN"
 "http://www.w3.org/TR/2001/REC-SVG-20010904/DTD/svg10.dtd">
<svg version="1.0" xmlns="http://www.w3.org/2000/svg"
 width="128.000000pt" height="235.000000pt" viewBox="0 0 128.000000 235.000000"
 preserveAspectRatio="xMidYMid meet">
<metadata>
Created by potrace 1.16, written by Peter Selinger 2001-2019
</metadata>
<g transform="translate(0.000000,235.000000) scale(0.100000,-0.100000)"
fill="#000000" stroke="none">
<path d="M292 2323 c-45 -64 -167 -476 -221 -748 -59 -295 -74 -451 -68 -685
4 -135 10 -199 22 -239 39 -121 82 -155 152 -120 55 28 85 74 250 375 215 395
232 427 233 447 0 47 -37 0 -108 -133 -19 -36 -67 -123 -107 -195 -40 -71
-100 -182 -135 -245 -75 -138 -124 -207 -152 -216 -88 -28 -126 276 -78 626
41 301 56 380 110 598 33 134 38 153 111 376 27 82 47 158 43 168 -8 26 -30
22 -52 -9z"/>
<path d="M925 1087 c-57 -28 -88 -59 -138 -138 -58 -92 -119 -253 -153 -404
-25 -114 -25 -320 0 -395 63 -185 195 -198 364 -36 71 67 130 146 184 246 20
36 48 86 62 112 29 51 35 86 10 53 -8 -11 -33 -54 -55 -96 -153 -294 -358
-462 -466 -383 -15 11 -39 42 -53 70 -23 45 -25 59 -25 189 0 154 15 247 66
400 61 183 141 313 222 355 44 23 49 24 74 10 15 -9 34 -27 41 -40 26 -49 -2
-184 -67 -333 -24 -55 -24 -57 -12 -57 13 0 87 177 101 242 38 170 -33 263
-155 205z"/>
</g>
</svg>
